<svg width="24" height="24" viewBox="0 0 24 24" fill="none" xmlns="http://www.w3.org/2000/svg">
<path d="M14 7C14.0002 8.39064 13.5862 9.74983 12.8108 10.9042C12.0354 12.0586 10.9337 12.9559 9.64622 13.4816C8.35878 14.0073 6.94393 14.1376 5.58211 13.8559C4.2203 13.5742 2.97325 12.8933 2 11.9V12C2 17.523 6.477 22 12 22C17.523 22 22 17.523 22 12C22 6.477 17.523 2 12 2H11.9C12.566 2.65113 13.0949 3.42896 13.4555 4.28768C13.8162 5.1464 14.0013 6.06862 14 7ZM20 12C20.0007 13.785 19.4045 15.5189 18.3061 16.926C17.2077 18.333 15.6704 19.3323 13.9386 19.7648C12.2068 20.1974 10.3801 20.0383 8.74916 19.313C7.11819 18.5876 5.77666 17.3377 4.938 15.762C6.43056 16.1136 7.98821 16.0781 9.46318 15.6587C10.9381 15.2394 12.2815 14.4501 13.3658 13.3658C14.4501 12.2815 15.2394 10.9381 15.6587 9.46318C16.0781 7.98821 16.1136 6.43056 15.762 4.938C17.0424 5.62014 18.1132 6.63766 18.8597 7.88164C19.6063 9.12562 20.0004 10.5492 20 12Z" fill="#09121F"/>
</svg>
